<svg xmlns="http://www.w3.org/2000/svg">
    <symbol id="heart" viewBox="0 0 100 100">
        <g transform="translate(0,-952.36218)">
            <path d="m 11.515026,969.18361 c -8.6909003,9.09509 -8.6825003,23.73055 0,32.83459 l 38.461099,40.344 c 12.8352,-13.4324 25.6705,-26.8647 38.5057,-40.2973 8.6909,-9.09529 8.6909,-23.73948 0,-32.83474 -8.6909,-9.09526 -22.6841,-9.09546 -31.375,0 l -7.0861,7.41581 -7.1307,-7.46236 c -8.691,-9.09527 -22.6842,-9.09527 -31.374999,0 z" stroke="none" marker="none" visibility="visible" display="inline" overflow="visible"/>
        </g>
    </symbol>

    <symbol id="tea" viewBox="0 0 100 100">
        <g display="none"><g display="inline"><g><rect fill="#000000" width="100" height="5"/></g></g><g display="inline"><g><rect y="95" fill="#000000" width="100" height="5"/></g></g><g display="inline"><g><rect x="95" fill="#000000" width="5" height="100"/></g></g><g display="inline"><g><rect fill="#000000" width="5" height="100"/></g></g></g><g enable-background="new    "><g><g><path fill="none" stroke="#000000" stroke-width="2" stroke-miterlimit="10" d="M20.236,55.959l5.098,22.416     c2.11,9.277,9.664,15.666,17.189,15.666h12.945c7.525,0,15.079-6.389,17.189-15.666l5.098-22.416H20.236z"/></g></g><path fill="none" stroke="#000000" stroke-width="2" stroke-miterlimit="10" d="M76.631,60.905   c0.972-0.314,2.008-0.484,3.083-0.484c5.523,0,9.072,5.412,7.286,10c-1.896,4.87-3.5,8.829-7.286,10   c-2.554,0.79-6.214-0.588-6.895-2.756"/><path fill="none" stroke="#000000" stroke-width="2" stroke-linecap="round" stroke-miterlimit="10" d="M48.411,17.184   c0,0-9.642,9.761,0,17.968c9.642,8.209,3.567,13.866,3.567,13.866"/><path fill="none" stroke="#000000" stroke-width="2" stroke-linecap="round" stroke-miterlimit="10" d="M62.654,29.916   c0,0-6.082,6.158,0,11.336C68.737,46.431,64.905,50,64.905,50"/><path fill="none" stroke="#000000" stroke-width="2" stroke-linecap="round" stroke-miterlimit="10" d="M35.59,28.934   c0,0-6.083,6.158,0,11.336c6.083,5.179,2.251,8.748,2.251,8.748"/></g>
    </symbol>

    <symbol id="cheese" viewBox="0 0 100 100">
        <g display="none"><g display="inline"><g><rect fill="#000000" width="100" height="5"/></g></g><g display="inline"><g><rect y="95" fill="#000000" width="100" height="5"/></g></g><g display="inline"><g><rect x="95" fill="#000000" width="5" height="100"/></g></g><g display="inline"><g><rect fill="#000000" width="5" height="100"/></g></g></g><g><circle fill="none" stroke="#000000" stroke-width="2" stroke-linecap="round" stroke-linejoin="round" stroke-miterlimit="10" cx="43.938" cy="52.563" r="7.063"/><circle fill="none" stroke="#000000" stroke-width="2" stroke-linecap="round" stroke-linejoin="round" stroke-miterlimit="10" cx="65.75" cy="70.375" r="3.125"/><circle fill="none" stroke="#000000" stroke-width="2" stroke-linecap="round" stroke-linejoin="round" stroke-miterlimit="10" cx="45.188" cy="76.813" r="4.813"/><path fill="none" stroke="#000000" stroke-width="2" stroke-linecap="round" stroke-linejoin="round" stroke-miterlimit="10" d="   M63.441,37.852c-0.27,0.024-0.541,0.042-0.816,0.042c-4.936,0-8.938-4.001-8.938-8.938c0-2.359,0.922-4.499,2.415-6.096   L49.25,8.861l-24.176,51.6c1.456,0.934,2.426,2.557,2.426,4.414c0,2.899-2.351,5.25-5.25,5.25c-0.554,0-1.077-0.109-1.578-0.268   L15.75,80.361c0,0,32,24.25,68.5,0L63.441,37.852z"/></g>
    </symbol>
</svg>