<svg xmlns="http://www.w3.org/2000/svg">
    <symbol id="heart" viewBox="0 0 100 100">
        <g transform="translate(0,-952.36218)">
            <path d="m 11.515026,969.18361 c -8.6909003,9.09509 -8.6825003,23.73055 0,32.83459 l 38.461099,40.344 c 12.8352,-13.4324 25.6705,-26.8647 38.5057,-40.2973 8.6909,-9.09529 8.6909,-23.73948 0,-32.83474 -8.6909,-9.09526 -22.6841,-9.09546 -31.375,0 l -7.0861,7.41581 -7.1307,-7.46236 c -8.691,-9.09527 -22.6842,-9.09527 -31.374999,0 z" stroke="none" marker="none" visibility="visible" display="inline" overflow="visible"/>
        </g>
    </symbol>

    <symbol id="tea" viewBox="0 0 100 100">
        <g display="none"><g display="inline"><g><rect fill="#000000" width="100" height="5"/></g></g><g display="inline"><g><rect y="95" fill="#000000" width="100" height="5"/></g></g><g display="inline"><g><rect x="95" fill="#000000" width="5" height="100"/></g></g><g display="inline"><g><rect fill="#000000" width="5" height="100"/></g></g></g><g enable-background="new    "><g><g><path fill="none" stroke="#000000" stroke-width="2" stroke-miterlimit="10" d="M20.236,55.959l5.098,22.416     c2.11,9.277,9.664,15.666,17.189,15.666h12.945c7.525,0,15.079-6.389,17.189-15.666l5.098-22.416H20.236z"/></g></g><path fill="none" stroke="#000000" stroke-width="2" stroke-miterlimit="10" d="M76.631,60.905   c0.972-0.314,2.008-0.484,3.083-0.484c5.523,0,9.072,5.412,7.286,10c-1.896,4.87-3.5,8.829-7.286,10   c-2.554,0.79-6.214-0.588-6.895-2.756"/><path fill="none" stroke="#000000" stroke-width="2" stroke-linecap="round" stroke-miterlimit="10" d="M48.411,17.184   c0,0-9.642,9.761,0,17.968c9.642,8.209,3.567,13.866,3.567,13.866"/><path fill="none" stroke="#000000" stroke-width="2" stroke-linecap="round" stroke-miterlimit="10" d="M62.654,29.916   c0,0-6.082,6.158,0,11.336C68.737,46.431,64.905,50,64.905,50"/><path fill="none" stroke="#000000" stroke-width="2" stroke-linecap="round" stroke-miterlimit="10" d="M35.59,28.934   c0,0-6.083,6.158,0,11.336c6.083,5.179,2.251,8.748,2.251,8.748"/></g>
    </symbol>

    <symbol id="cheese" viewBox="0 0 100 100">
        <g display="none"><g display="inline"><g><rect fill="#000000" width="100" height="5"/></g></g><g display="inline"><g><rect y="95" fill="#000000" width="100" height="5"/></g></g><g display="inline"><g><rect x="95" fill="#000000" width="5" height="100"/></g></g><g display="inline"><g><rect fill="#000000" width="5" height="100"/></g></g></g><g><circle fill="none" stroke="#000000" stroke-width="2" stroke-linecap="round" stroke-linejoin="round" stroke-miterlimit="10" cx="43.938" cy="52.563" r="7.063"/><circle fill="none" stroke="#000000" stroke-width="2" stroke-linecap="round" stroke-linejoin="round" stroke-miterlimit="10" cx="65.75" cy="70.375" r="3.125"/><circle fill="none" stroke="#000000" stroke-width="2" stroke-linecap="round" stroke-linejoin="round" stroke-miterlimit="10" cx="45.188" cy="76.813" r="4.813"/><path fill="none" stroke="#000000" stroke-width="2" stroke-linecap="round" stroke-linejoin="round" stroke-miterlimit="10" d="   M63.441,37.852c-0.27,0.024-0.541,0.042-0.816,0.042c-4.936,0-8.938-4.001-8.938-8.938c0-2.359,0.922-4.499,2.415-6.096   L49.25,8.861l-24.176,51.6c1.456,0.934,2.426,2.557,2.426,4.414c0,2.899-2.351,5.25-5.25,5.25c-0.554,0-1.077-0.109-1.578-0.268   L15.75,80.361c0,0,32,24.25,68.5,0L63.441,37.852z"/></g>
    </symbol>

    <symbol id="avito" viewBox="0 0 322 112">
        <g transform="translate(14 14)">
            <circle cx="60.65" cy="60.55" r="22.45" fill="#97CF26"/>
            <circle cx="18.45" cy="60.55" r="10.45" fill="#A169F7"/>
            <circle cx="60.65" cy="18.35" r="14.45" fill="#FF6163"/>
            <circle cx="18.45" cy="18.35" r="18.45" fill="#0AF"/>
            <g>
                <path d="M141.466 70.878h11.654L131.537 12.11h-8.453l-21.587 58.77h11.655l4.122-11.218h20.07l4.122 11.218-20.946-20.062 6.79-18.48 6.786 18.48H120.52zm40.544-40.122L171.285 59.95l-10.72-29.194h-10.95l14.742 40.122h13.858l14.74-40.122h-10.947m15.53 0h10.95v40.122h-10.95V30.756z"/>
                <circle cx="203.05" cy="19.15" r="7.05"/>
                <path d="M247.15 39.598v-8.842h-13.117V19.688H223.09v11.068h-8.66v8.842h8.66V56.86c0 8.904 4.452 14.847 15.82 14.847 4.39 0 8.24-1.612 8.24-1.612l-1.33-8.663s-2.155.644-4.805.644c-3.248 0-6.982-1.4-6.982-5.89V39.597h13.117m25.11 22.11c-6.105 0-11.052-4.84-11.052-10.81 0-5.965 4.947-10.806 11.05-10.806 6.107 0 11.052 4.842 11.052 10.807 0 5.97-4.945 10.81-11.05 10.81m0-31.976c-11.868 0-21.493 9.415-21.493 21.02 0 11.61 9.625 21.02 21.492 21.02 11.862 0 21.487-9.41 21.487-21.02 0-11.605-9.625-21.02-21.488-21.02"/>
            </g>
        </g>
    </symbol>

    <symbol id="sad" viewBox="0 0 100 100">
        <g><path d="M78.788,48.031V43.58c0-16.965-11.12-27.503-29.021-27.503c-17.629,0-29.02,10.796-29.02,27.505l0.009,4.569   c0,0.014,0.002,0.027,0.003,0.041c-1.581,1.551-2.588,3.854-2.588,6.425v3.307c0,4.47,3.035,8.13,6.858,8.421   c3.21,10.621,13.083,18.378,24.737,18.378c11.65,0,21.521-7.752,24.734-18.367c3.908-0.186,7.041-3.891,7.041-8.432v-3.307   C81.543,51.955,80.465,49.581,78.788,48.031z M70.017,55.761c-0.655-1.752-2.439-2.767-5.075-2.767h-8.003   c-3.251,0-5.218,1.539-5.342,4.115h-3.599c-0.124-2.576-2.09-4.115-5.341-4.115h-8.003c-2.788,0-4.624,1.137-5.174,3.081   l-1.916-0.562v-5.861c0.84,0.159,2.154,0.352,3.588,0.352s2.692-0.194,3.741-0.578c1.541-0.563,3.561-1.717,5.342-2.735   c0.965-0.551,2.158-1.232,3.03-1.654c-0.869,1.102-2.492,2.824-3.988,4.261c-0.223,0.214-0.292,0.543-0.173,0.829   c0.119,0.285,0.406,0.445,0.709,0.462c4.432-0.094,8.757-3.109,11.341-4.911c0.3-0.209,0.614-0.428,0.901-0.623   c-0.727,1.206-2.215,3.031-3.644,4.519c-0.208,0.217-0.267,0.537-0.149,0.813s0.389,0.456,0.69,0.456   c3.859,0,8.464-3.188,11.216-5.092c0.279-0.194,0.573-0.397,0.845-0.58c-0.406,0.701-1.301,1.91-3.17,3.997   c-0.428,0.477-0.298,0.923-0.222,1.093c0.279,0.626,1.08,0.751,2.282,0.751c3.132,0,9.691-1.019,12.072-1.407v5.582L70.017,55.761z    M65.574,62.761c1.491,1.937,3.141,4.516,3.141,5.665c0,1.773-1.409,3.216-3.141,3.216s-3.141-1.442-3.141-3.216   C62.434,67.276,64.083,64.697,65.574,62.761z M66.34,60.521c-0.379-0.453-1.152-0.453-1.531,0c-0.42,0.5-1.799,2.188-2.897,4.02   h-4.973c-1.58,0-2.865-1.285-2.865-2.865v-4.315c0-0.461,0-1.865,2.865-1.865h8.003c2.866,0,2.866,1.404,2.866,1.865v4.315   c0,0.214-0.032,0.419-0.078,0.619C67.111,61.454,66.574,60.8,66.34,60.521z M45.521,58.219c-0.006,0.049-0.028,0.091-0.028,0.141   s0.022,0.092,0.028,0.141v3.175c0,1.58-1.285,2.865-2.865,2.865h-8.003c-1.58,0-2.866-1.285-2.866-2.865v-4.315   c0-0.461,0-1.865,2.866-1.865h8.003c2.865,0,2.865,1.404,2.865,1.865V58.219z M20.172,57.923v-3.307   c0-1.413,0.383-2.718,1.025-3.782l1.096,6.518c0.027,1.078,0.706,1.993,1.656,2.375c0.05,1.545,0.232,3.057,0.543,4.522   C22.034,63.671,20.172,61.056,20.172,57.923z M49.768,82.722c-12.867,0-23.378-10.248-23.819-23.009   c0.706-0.298,1.244-0.899,1.478-1.635l1.86,0.545v3.052c0,2.958,2.407,5.365,5.366,5.365h8.003c2.958,0,5.365-2.407,5.365-5.365   v-2.065h3.552v2.065c0,2.958,2.407,5.365,5.365,5.365h3.765c-0.165,0.496-0.27,0.968-0.27,1.386c0,2.876,2.306,5.216,5.141,5.216   s5.141-2.34,5.141-5.216c0-1.042-0.605-2.399-1.369-3.702c0.604-0.865,0.962-1.915,0.962-3.049V58.28l1.717-0.503   c0.166,0.874,0.763,1.598,1.563,1.936C73.146,72.474,62.634,82.722,49.768,82.722z M79.543,57.923c0,3.211-1.957,5.875-4.508,6.362   c0.316-1.478,0.501-3.001,0.552-4.559c0.342-0.136,0.658-0.337,0.92-0.602c0.458-0.462,0.715-1.051,0.729-1.663l1.138-6.861   c0.73,1.103,1.17,2.498,1.17,4.015V57.923z"/><circle cx="38.762" cy="60.181" r="2.658"/><circle cx="60.775" cy="60.181" r="2.658"/><path d="M56.256,72.475H43.338c-0.552,0-1,0.447-1,1s0.448,1,1,1h12.918c0.553,0,1-0.447,1-1S56.809,72.475,56.256,72.475z"/></g>
    </symbol>

    <symbol id="sad-girl" viewBox="0 0 100 100">
        <g><path fill="#000000" d="M82.62,60.935c-3.142-4.2-3.365-14.943-3.367-15.052c-0.001-0.038-0.004-0.076-0.009-0.113   c-1.366-10.342-5.263-18.008-11.581-22.785c-7.167-5.418-15.245-5.465-18.165-5.273c-2.916-0.193-10.996-0.148-18.166,5.273   C25.014,27.761,21.117,35.427,19.75,45.77c-0.005,0.038-0.008,0.076-0.009,0.114c-0.002,0.108-0.225,10.851-3.367,15.051   c-3.119,4.168-3.782,8.807-1.819,12.726c1.938,3.871,6.035,6.275,10.692,6.275c0.398,0,0.759-0.236,0.917-0.602   c0.159-0.366,0.085-0.791-0.187-1.082c-0.029-0.03-2.307-2.51-1.97-5.28c1.365,2.791,4.388,6.964,10.24,6.964   c0.426,0,0.804-0.27,0.943-0.671c0.141-0.401,0.011-0.848-0.322-1.112c-0.041-0.033-4.112-3.304-4.359-6.65   c-0.044-0.592,0.044-1.145,0.253-1.67c3.813,7.445,10.676,13.363,18.714,13.363c8.22,0,14.841-5.548,18.583-12.743   c0.247,0.563,0.354,1.147,0.294,1.768c-0.302,3.073-4.151,5.875-4.19,5.903c-0.353,0.254-0.502,0.706-0.368,1.119   c0.133,0.413,0.517,0.693,0.951,0.693c6.07,0,9-4.079,10.297-6.881c0.619,3.009-1.389,5.063-1.491,5.166   c-0.271,0.266-0.369,0.66-0.253,1.021c0.116,0.36,0.426,0.624,0.801,0.682c0.495,0.076,0.987,0.113,1.474,0.113   c3.383,0,6.501-1.798,8.37-4.913C85.942,71.79,86.645,66.313,82.62,60.935z M49.477,81.195c-7.697,0-14.211-6.065-17.544-13.455   c-0.004-0.251-0.104-0.496-0.295-0.687c-1.34-3.191-2.093-6.596-2.093-9.847v-0.774c4.128-0.844,5.54-6.955,6.796-12.392   c0.844-3.65,1.716-7.423,3.192-8.695c1.086-0.935,2.144-1.354,3.149-1.24c1.527,0.171,2.535,1.512,2.542,1.521   c0.188,0.259,0.487,0.413,0.808,0.414c0.001,0,0.002,0,0.003,0c0.318,0,0.618-0.152,0.807-0.409   c0.015-0.021,1.582-2.057,3.425-1.847c1.628,0.188,3.245,2.064,4.677,5.425c1.426,3.348,2.843,6.324,4.329,8.837h-4.61   c-0.553,0-1,0.448-1,1s0.447,1,1,1h5.873c2.567,3.75,5.396,6.079,8.873,6.435v0.725c0,3.589-0.821,7.307-2.313,10.715   c-0.058,0.088-0.1,0.179-0.127,0.278C63.706,75.434,57.404,81.195,49.477,81.195z M82.228,74.095   c-1.385,2.31-3.613,3.717-6.064,3.917c1.068-1.949,1.688-4.969-0.34-8.261c-0.215-0.35-0.623-0.532-1.025-0.459   c-0.404,0.071-0.724,0.383-0.807,0.784c-0.056,0.271-1.234,5.713-6.17,7.379c1.161-1.312,2.328-3.08,2.521-5.034   c0.148-1.493-0.276-2.882-1.261-4.137c0.572-1.355,1.057-2.748,1.423-4.164c2.979-0.383,5.294-3.086,5.294-6.354v-2.018   c0-0.533-0.418-0.973-0.95-0.999l-4.341-0.213c-0.033-0.003-0.066-0.005-0.1-0.005c-4.868,0-8.688-4.515-13.625-16.105   c-1.754-4.118-3.869-6.348-6.286-6.627c-1.983-0.229-3.578,0.918-4.478,1.776c-0.67-0.593-1.726-1.293-3.088-1.453   c-1.586-0.187-3.17,0.388-4.703,1.708c-1.974,1.699-2.878,5.615-3.836,9.761c-1.186,5.128-2.528,10.94-5.848,10.94   c-0.008,0-0.014,0.004-0.021,0.004c-0.008,0.001-0.015-0.004-0.022-0.003l-5.02,0.217c-0.535,0.023-0.957,0.464-0.957,0.999v2.02   c0,3.526,2.697,6.395,6.014,6.398c0.326,1.168,0.729,2.325,1.201,3.46c-0.922,1.202-1.334,2.554-1.225,4.029   c0.167,2.233,1.533,4.317,2.812,5.808c-4.815-1.662-6.265-7.157-6.334-7.431c-0.096-0.379-0.403-0.668-0.787-0.739   c-0.377-0.068-0.773,0.086-0.999,0.405c-1.996,2.822-1.235,5.909-0.041,8.043c-3.002-0.571-5.519-2.37-6.823-4.977   c-1.611-3.217-1.016-7.093,1.633-10.633c3.436-4.592,3.743-15.17,3.765-16.156c1.299-9.751,4.925-16.945,10.776-21.38   c5.711-4.328,12.202-4.936,15.548-4.919c0.18,0.095,0.921,0.08,1.418,0.046c0.518,0.034,1.281,0.049,1.463-0.05   c3.342-0.019,9.799,0.589,15.512,4.908c5.864,4.434,9.497,11.632,10.797,21.396c0.021,0.986,0.33,11.564,3.765,16.156   C84.45,66.718,83.893,71.318,82.228,74.095z M70.976,61.967c0.285-1.588,0.433-3.186,0.433-4.76v-0.625l2.391,0.118v1.065   C73.799,59.736,72.609,61.408,70.976,61.967z M28.051,62.111c-1.981-0.27-3.525-2.104-3.525-4.344v-1.062l3.02-0.131v0.632   C27.545,58.819,27.723,60.467,28.051,62.111z"/><path fill="#000000" d="M43.334,50.088c0.553,0,1-0.448,1-1s-0.447-1-1-1h-6.723c-0.553,0-1,0.448-1,1s0.447,1,1,1H43.334z"/><path fill="#000000" d="M62.413,55.183c-0.939-0.938-2.251-1.471-3.69-1.504c-0.008,0-0.016,0-0.022,0   c-0.058,0-0.107,0.022-0.162,0.032c-0.055-0.009-0.104-0.032-0.16-0.032c-2.197,0-3.984,1.787-3.984,3.984   c0,1.945,1.186,3.468,3.02,3.878c0.074,0.017,0.147,0.024,0.22,0.024c0.029,0,0.057-0.012,0.086-0.015   c0.056,0.004,0.112,0.014,0.167,0.014c1.188,0,2.24-0.857,2.445-2.066c0.141-0.834-0.147-1.673-0.771-2.242   c-0.406-0.372-1.039-0.346-1.412,0.063c-0.373,0.407-0.346,1.04,0.063,1.412c0.12,0.11,0.175,0.272,0.147,0.434   c-0.043,0.262-0.285,0.441-0.554,0.394c-0.011-0.002-0.021,0.003-0.031,0.001c-0.861-0.229-1.38-0.925-1.38-1.896   c0-1.094,0.891-1.984,1.984-1.984c0.056,0,0.104-0.023,0.158-0.032c0.048,0.009,0.091,0.031,0.142,0.032   c0.924,0.021,1.749,0.348,2.324,0.92c0.605,0.604,0.913,1.449,0.89,2.446c-0.021,0.879-0.382,1.697-1.018,2.305   s-1.479,0.941-2.349,0.909c-0.144-0.003-0.279,0.024-0.402,0.074c-1.018,0.056-1.941-0.306-2.553-1.029   c-0.354-0.422-0.986-0.478-1.409-0.118c-0.422,0.356-0.475,0.987-0.118,1.409c0.96,1.136,2.351,1.751,3.869,1.751   c0.415,0,0.84-0.046,1.268-0.14c0.001,0,0.001-0.001,0.002-0.001c1.148-0.125,2.224-0.598,3.073-1.409   c1.022-0.976,1.604-2.292,1.637-3.704C63.927,57.533,63.416,56.181,62.413,55.183z"/><path fill="#000000" d="M44.858,62.796c1.022-0.976,1.604-2.292,1.637-3.704c0.035-1.559-0.476-2.911-1.479-3.909   c-0.939-0.938-2.251-1.471-3.69-1.504c-0.008,0-0.016,0-0.022,0c-0.058,0-0.107,0.022-0.162,0.032   c-0.055-0.009-0.104-0.032-0.16-0.032c-2.197,0-3.984,1.787-3.984,3.984c0,1.945,1.186,3.468,3.02,3.878   c0.074,0.017,0.147,0.024,0.22,0.024c0.029,0,0.057-0.012,0.086-0.015c0.056,0.004,0.112,0.014,0.167,0.014   c1.188,0,2.24-0.857,2.445-2.066c0.141-0.834-0.147-1.673-0.771-2.242c-0.406-0.372-1.039-0.346-1.412,0.063   c-0.373,0.407-0.346,1.04,0.063,1.412c0.12,0.11,0.175,0.272,0.147,0.434c-0.043,0.262-0.287,0.441-0.554,0.394   c-0.011-0.002-0.021,0.003-0.031,0.001c-0.861-0.229-1.38-0.925-1.38-1.896c0-1.094,0.891-1.984,1.984-1.984   c0.056,0,0.104-0.023,0.158-0.032c0.048,0.009,0.091,0.031,0.142,0.032c0.924,0.021,1.749,0.348,2.324,0.92   c0.605,0.604,0.913,1.449,0.89,2.446c-0.021,0.879-0.382,1.697-1.018,2.305c-0.635,0.607-1.473,0.941-2.349,0.909   c-0.142-0.003-0.275,0.024-0.398,0.074c-1.02,0.057-1.945-0.306-2.557-1.029c-0.354-0.422-0.986-0.478-1.409-0.118   c-0.422,0.356-0.475,0.987-0.118,1.409c0.96,1.136,2.351,1.751,3.869,1.751c0.415,0,0.84-0.046,1.268-0.14   c0.001,0,0.001-0.001,0.002-0.001C42.934,64.08,44.009,63.607,44.858,62.796z"/><path fill="#000000" d="M58.029,71.375l-3.421-1.958c-0.282-0.161-0.626-0.175-0.922-0.037l-3.742,1.759l-3.742-1.759   c-0.312-0.146-0.68-0.121-0.971,0.067l-3.006,1.958c-0.463,0.302-0.594,0.921-0.292,1.384c0.301,0.463,0.921,0.592,1.384,0.292   l2.539-1.654l3.663,1.722c0.268,0.127,0.582,0.127,0.85,0l3.697-1.737l2.969,1.7c0.157,0.09,0.328,0.132,0.496,0.132   c0.347,0,0.685-0.181,0.869-0.503C58.675,72.261,58.509,71.649,58.029,71.375z"/></g>
    </symbol>

    <symbol id="sad2" viewBox="0 0 100 100">
        <g><path d="M78.788,48.031V43.58c0-10.279-4.089-18.193-11.289-22.839L64.629,10.2c-0.118-0.436-0.514-0.737-0.965-0.737   s-0.847,0.302-0.965,0.737l-2.017,7.407c-3.27-1.003-6.923-1.531-10.915-1.531c-3.798,0-7.304,0.504-10.471,1.457L37.3,10.2   c-0.119-0.436-0.514-0.737-0.965-0.737S35.489,9.765,35.37,10.2l-2.82,10.359c-7.461,4.661-11.802,12.713-11.802,23.022   l0.009,4.569c0,0.014,0.002,0.027,0.003,0.041c-1.581,1.551-2.588,3.854-2.588,6.425v3.307c0,4.47,3.035,8.13,6.858,8.421   c3.21,10.621,13.083,18.378,24.737,18.378c11.65,0,21.521-7.752,24.734-18.367c3.908-0.186,7.041-3.891,7.041-8.432v-3.307   C81.543,51.955,80.465,49.581,78.788,48.031z M70.017,55.761c-0.655-1.752-2.439-2.767-5.075-2.767h-1.117   c1.108-0.608,2.129-1.396,2.828-2.436c0.036-0.053,0.046-0.114,0.07-0.17c2.144-0.287,4.147-0.602,5.252-0.782v5.582L70.017,55.761   z M51.597,57.109h-3.599c-0.119-2.464-1.935-3.963-4.938-4.09c-0.113-0.059-0.238-0.098-0.373-0.109   c-1.626-0.142-6.206-1.039-7.84-3.468c0,0-0.001-0.001-0.002-0.002c0.015-0.005,0.031-0.008,0.045-0.014   c1.541-0.563,3.561-1.717,5.342-2.735c0.965-0.551,2.158-1.232,3.03-1.654c-0.869,1.102-2.492,2.824-3.988,4.261   c-0.223,0.214-0.292,0.543-0.173,0.829c0.119,0.285,0.406,0.445,0.709,0.462c4.432-0.094,8.757-3.109,11.341-4.911   c0.3-0.209,0.614-0.428,0.901-0.623c-0.727,1.206-2.215,3.031-3.644,4.519c-0.208,0.217-0.267,0.537-0.149,0.813   s0.389,0.456,0.69,0.456c3.859,0,8.464-3.188,11.216-5.092c0.279-0.194,0.573-0.397,0.845-0.58c-0.406,0.701-1.301,1.91-3.17,3.997   c-0.428,0.477-0.298,0.923-0.222,1.093c0.279,0.626,1.08,0.751,2.282,0.751c0.989,0,2.321-0.102,3.755-0.253   c-2.489,1.77-6.456,2.147-6.505,2.151c-0.109,0.01-0.208,0.048-0.304,0.09C53.653,53.029,51.72,54.558,51.597,57.109z    M29.479,56.075l-1.916-0.562v-5.861c0.84,0.159,2.154,0.352,3.588,0.352c0.669,0,1.296-0.046,1.886-0.131   c-0.03,0.232,0.011,0.476,0.152,0.685c0.699,1.04,1.72,1.828,2.828,2.436h-1.363C31.865,52.994,30.029,54.131,29.479,56.075z    M31.787,57.359c0-0.461,0-1.865,2.866-1.865h8.003c2.865,0,2.865,1.404,2.865,1.865v0.859c-0.006,0.049-0.028,0.091-0.028,0.141   s0.022,0.092,0.028,0.141v3.175c0,1.58-1.285,2.865-2.865,2.865h-8.003c-1.58,0-2.866-1.285-2.866-2.865V57.359z M54.073,57.359   c0-0.461,0-1.865,2.865-1.865h8.003c2.866,0,2.866,1.404,2.866,1.865v4.315c0,1.58-1.286,2.865-2.866,2.865h-8.003   c-1.58,0-2.865-1.285-2.865-2.865V57.359z M20.172,57.923v-3.307c0-1.413,0.383-2.718,1.025-3.782l1.096,6.518   c0.027,1.078,0.706,1.993,1.656,2.375c0.05,1.545,0.232,3.057,0.543,4.522C22.034,63.671,20.172,61.056,20.172,57.923z    M49.768,82.722c-12.867,0-23.378-10.248-23.819-23.009c0.706-0.298,1.244-0.899,1.478-1.635l1.86,0.545v3.052   c0,2.958,2.407,5.365,5.366,5.365h8.003c2.958,0,5.365-2.407,5.365-5.365v-2.065h3.552v2.065c0,2.958,2.407,5.365,5.365,5.365   h8.003c2.959,0,5.366-2.407,5.366-5.365V58.28l1.717-0.503c0.166,0.874,0.763,1.598,1.563,1.936   C73.146,72.474,62.634,82.722,49.768,82.722z M79.543,57.923c0,3.211-1.957,5.875-4.508,6.362c0.316-1.478,0.501-3.001,0.552-4.559   c0.342-0.136,0.658-0.337,0.92-0.602c0.458-0.462,0.715-1.051,0.729-1.663l1.138-6.861c0.73,1.103,1.17,2.498,1.17,4.015V57.923z"/><circle cx="38.836" cy="59.618" r="2.658"/><circle cx="60.85" cy="59.618" r="2.658"/><path d="M50.162,71.806c-6.38,0-8.554,4.277-8.643,4.46c-0.244,0.495-0.039,1.095,0.457,1.338c0.499,0.243,1.095,0.04,1.338-0.457   c0.017-0.033,1.7-3.341,6.848-3.341c5.021,0,6.435,3.137,6.5,3.285c0.159,0.384,0.531,0.615,0.923,0.615   c0.126,0,0.254-0.023,0.378-0.074c0.512-0.209,0.757-0.792,0.548-1.304C58.435,76.144,56.59,71.806,50.162,71.806z"/></g>
    </symbol>

    <symbol id="happy" viewBox="0 0 100 100">
        <g><path d="M82.39,74.518c-3.042-6.525-3.801-22.309-3.807-22.422V38.637c0-15.358-12.659-27.852-28.22-27.852   s-28.22,12.494-28.22,27.852l0.001,11.611c0,0,0,0.001,0,0.002s0,0.001,0,0.001v1.799c-0.007,0.158-0.764,15.939-3.808,22.467   c-2.199,4.719-1.157,9.686,2.656,12.654c1.696,1.32,3.967,2.186,6.432,2.184c2.355,0,4.888-0.789,7.261-2.723   c0.311-0.254,0.439-0.668,0.328-1.055c-0.112-0.385-0.444-0.666-0.843-0.713c-0.054-0.008-5.439-0.682-6.945-3.672   c-0.514-1.02-0.508-2.246,0.012-3.66c2.235,2.969,6.562,6.213,11.955,3.564c0.347-0.17,0.563-0.525,0.558-0.912   c-0.005-0.387-0.234-0.736-0.586-0.896c-0.314-0.143-7.532-3.563-4.104-12.473c4.426,4.152,10.016,6.758,15.067,6.758   c5.353,0,11.139-2.617,15.59-6.924c3.684,9.104-3.816,12.492-4.137,12.631c-0.359,0.154-0.596,0.502-0.606,0.893   c-0.01,0.391,0.209,0.752,0.56,0.924c5.397,2.65,9.72-0.598,11.953-3.564c0.521,1.414,0.526,2.641,0.013,3.66   c-1.505,2.99-6.892,3.664-6.945,3.672c-0.398,0.047-0.73,0.328-0.843,0.715c-0.111,0.385,0.018,0.799,0.328,1.053   c2.373,1.934,4.905,2.723,7.262,2.723c2.464,0,4.736-0.863,6.432-2.184C83.546,84.203,84.589,79.236,82.39,74.518z M73.25,50.916   c0.177,0.051,0.344,0.114,0.524,0.159c0.039,0.01,0.079,0.018,0.119,0.021c0.06,0.008,1.005,0.121,2.097,0.122   c-0.23,2.337-1.703,4.203-3.602,4.585C72.849,54.236,73.146,52.603,73.25,50.916z M50.363,12.785   c14.458,0,26.22,11.597,26.22,25.852l0.001,10.566c-1.028,0.051-2.13-0.057-2.391-0.085c-6.776-1.71-10.198-8.708-13.508-15.477   c-1.187-2.426-2.307-4.717-3.566-6.732c-1.863-2.981-4.041-4.772-6.473-5.323c-2.106-0.476-3.801,0.139-4.543,0.493   c-1.511-0.298-6.299-0.573-9.161,6.915c-0.757,1.979-1.413,4.137-2.048,6.224c-1.794,5.906-3.507,11.503-7.269,13.41   c-0.054,0.02-0.1,0.048-0.149,0.076c-0.343,0.163-0.697,0.306-1.076,0.406l-2.257,0.075V38.637   C24.144,24.382,35.905,12.785,50.363,12.785z M27.02,50.999c0.115,1.575,0.413,3.118,0.869,4.61   c-1.606-0.633-2.794-2.352-2.981-4.451l1.667-0.055c0.069-0.003,0.138-0.012,0.206-0.029C26.864,51.055,26.938,51.021,27.02,50.999   z M36.492,79.939c-5.188,1.076-8.361-4.656-8.508-4.926c-0.173-0.318-0.506-0.52-0.869-0.523c-0.334,0.014-0.7,0.188-0.879,0.502   c-1.543,2.703-1.811,5.094-0.794,7.107c1.218,2.41,4.02,3.639,6.075,4.234c-3.459,1.77-7.024,1.029-9.296-0.74   c-2.426-1.889-4.245-5.568-2.072-10.23c2.464-5.285,3.479-15.745,3.833-20.643c1.057,1.76,2.769,2.958,4.729,3.139   c1.171,2.755,2.866,5.289,4.887,7.482c-0.103,0.096-0.189,0.209-0.246,0.348C30.132,73.52,33.974,77.994,36.492,79.939z    M50.128,71.574c-8.19,0-20.738-9.149-21.146-21.405c3.271-1.924,5.115-6.004,6.61-10.491c0.082,0.469,0.473,0.833,0.966,0.833   h7.234c0.553,0,1-0.448,1-1s-0.447-1-1-1h-7.234c-0.262,0-0.496,0.106-0.675,0.271c0.317-0.988,0.623-1.987,0.926-2.983   c0.624-2.054,1.27-4.178,2.001-6.092c2.692-7.039,6.916-5.686,7.086-5.628c0.293,0.105,0.615,0.071,0.879-0.096   c0.014-0.009,1.476-0.888,3.43-0.447c1.893,0.429,3.648,1.92,5.22,4.433c1.204,1.927,2.302,4.173,3.465,6.551   c0.642,1.313,1.302,2.659,2.001,3.992h-5.234c-0.553,0-1,0.448-1,1s0.447,1,1,1h6.193c0.044,0,0.081-0.02,0.123-0.025   c2.336,4.092,5.19,7.809,9.306,9.704C70.898,62.281,59.749,71.574,50.128,71.574z M78.505,85.594   c-2.271,1.768-5.836,2.51-9.297,0.74c2.057-0.596,4.858-1.824,6.076-4.236c1.016-2.012,0.749-4.402-0.795-7.105   c-0.18-0.314-0.552-0.543-0.881-0.504c-0.363,0.006-0.695,0.207-0.868,0.527c-0.146,0.271-3.282,5.98-8.457,4.936   c2.571-1.922,6.464-6.336,3.249-14.152c-0.1-0.242-0.286-0.416-0.505-0.518c1.932-2.154,3.539-4.646,4.641-7.395   c0.004,0,0.007,0.002,0.011,0.002c2.077,0,3.92-1.152,5.082-2.924c0.368,4.967,1.39,15.193,3.816,20.398   C82.75,80.025,80.932,83.705,78.505,85.594z"/><path d="M45.91,47.312c0-1.451-1.063-2.627-2.373-2.627c-0.753,0-1.423,0.39-1.858,0.996c-0.435-0.606-1.104-0.996-1.857-0.996   c-1.311,0-2.373,1.176-2.373,2.627c0,1.83,2.369,5.114,4.224,5.114C43.766,52.426,45.91,49.447,45.91,47.312z"/><path d="M59.913,44.685c-0.753,0-1.423,0.39-1.858,0.996c-0.435-0.606-1.104-0.996-1.857-0.996c-1.311,0-2.373,1.176-2.373,2.627   c0,1.83,2.369,5.114,4.224,5.114c2.094,0,4.238-2.979,4.238-5.114C62.286,45.861,61.224,44.685,59.913,44.685z"/><path d="M56.18,59.335c-0.528-0.169-1.089,0.12-1.259,0.645c-0.259,0.799-1.724,2.067-4.558,2.067   c-2.553,0-4.143-1.076-4.585-2.144c-0.212-0.511-0.795-0.75-1.308-0.54c-0.51,0.211-0.752,0.797-0.54,1.307   c0.646,1.558,2.719,3.377,6.433,3.377c3.673,0,5.924-1.79,6.46-3.453C56.993,60.068,56.705,59.505,56.18,59.335z"/></g>
    </symbol>

    <symbol id="surprise" viewBox="0 0 100 100">
        <g><path d="M78.788,48.031V43.58c0-16.965-11.12-27.503-29.021-27.503c-17.629,0-29.02,10.796-29.02,27.505l0.009,4.569   c0,0.014,0.002,0.027,0.003,0.041c-1.581,1.551-2.588,3.854-2.588,6.425v3.307c0,4.47,3.035,8.13,6.858,8.421   c3.21,10.621,13.083,18.378,24.737,18.378c11.65,0,21.521-7.752,24.734-18.367c3.908-0.186,7.041-3.891,7.041-8.432v-3.307   C81.543,51.955,80.465,49.581,78.788,48.031z M70.017,55.761c-0.655-1.752-2.439-2.767-5.075-2.767h-8.003   c-3.251,0-5.218,1.539-5.342,4.115h-3.599c-0.124-2.576-2.09-4.115-5.341-4.115h-8.003c-2.788,0-4.624,1.137-5.174,3.081   l-1.916-0.562v-5.861c0.84,0.159,2.154,0.352,3.588,0.352s2.692-0.194,3.741-0.578c1.541-0.563,3.561-1.717,5.342-2.735   c0.965-0.551,2.158-1.232,3.03-1.654c-0.869,1.102-2.492,2.824-3.988,4.261c-0.223,0.214-0.292,0.543-0.173,0.829   c0.119,0.285,0.406,0.445,0.709,0.462c4.432-0.094,8.757-3.109,11.341-4.911c0.3-0.209,0.614-0.428,0.901-0.623   c-0.727,1.206-2.215,3.031-3.644,4.519c-0.208,0.217-0.267,0.537-0.149,0.813s0.389,0.456,0.69,0.456   c3.859,0,8.464-3.188,11.216-5.092c0.279-0.194,0.573-0.397,0.845-0.58c-0.406,0.701-1.301,1.91-3.17,3.997   c-0.428,0.477-0.298,0.923-0.222,1.093c0.279,0.626,1.08,0.751,2.282,0.751c3.132,0,9.691-1.019,12.072-1.407v5.582L70.017,55.761z    M67.808,57.359v4.315c0,1.58-1.286,2.865-2.866,2.865h-8.003c-1.58,0-2.865-1.285-2.865-2.865v-4.315c0-0.461,0-1.865,2.865-1.865   h8.003C67.808,55.494,67.808,56.898,67.808,57.359z M45.521,58.219c-0.006,0.049-0.028,0.091-0.028,0.141s0.022,0.092,0.028,0.141   v3.175c0,1.58-1.285,2.865-2.865,2.865h-8.003c-1.58,0-2.866-1.285-2.866-2.865v-4.315c0-0.461,0-1.865,2.866-1.865h8.003   c2.865,0,2.865,1.404,2.865,1.865V58.219z M20.172,57.923v-3.307c0-1.413,0.383-2.718,1.025-3.782l1.096,6.518   c0.027,1.078,0.706,1.993,1.656,2.375c0.05,1.545,0.232,3.057,0.543,4.522C22.034,63.671,20.172,61.056,20.172,57.923z    M49.768,82.722c-12.867,0-23.378-10.248-23.819-23.009c0.706-0.298,1.244-0.899,1.478-1.635l1.86,0.545v3.052   c0,2.958,2.407,5.365,5.366,5.365h8.003c2.958,0,5.365-2.407,5.365-5.365v-2.065h3.552v2.065c0,2.958,2.407,5.365,5.365,5.365   h8.003c2.959,0,5.366-2.407,5.366-5.365V58.28l1.717-0.503c0.166,0.874,0.763,1.598,1.563,1.936   C73.146,72.474,62.634,82.722,49.768,82.722z M79.543,57.923c0,3.211-1.957,5.875-4.508,6.362c0.316-1.478,0.501-3.001,0.552-4.559   c0.342-0.136,0.658-0.337,0.92-0.602c0.458-0.462,0.715-1.051,0.729-1.663l1.138-6.861c0.73,1.103,1.17,2.498,1.17,4.015V57.923z"/><circle cx="38.836" cy="59.618" r="2.658"/><circle cx="60.85" cy="59.618" r="2.658"/><path d="M49.834,68.235c-2.273,0-4.054,2.654-4.054,6.043s1.781,6.043,4.054,6.043s4.054-2.654,4.054-6.043   S52.107,68.235,49.834,68.235z M49.834,78.321c-0.97,0-2.054-1.729-2.054-4.043s1.084-4.043,2.054-4.043   c0.969,0,2.054,1.729,2.054,4.043S50.803,78.321,49.834,78.321z"/></g>
    </symbol>

    <symbol id="nerd-girl" viewBox="0 0 100 133">
        <g><path fill="none" d="M13.747,73.798H5.23c-2.624,0-4.75,2.103-4.75,4.694l9.592,43.785c0,2.594,2.126,4.695,4.75,4.695h70.356   c2.623,0,4.75-2.104,4.75-4.695l9.592-43.785c0-2.592-2.127-4.693-4.75-4.693h-8.306 M50,103.357c-1.407,0-2.549-1.142-2.549-2.549   c0-1.408,1.142-2.551,2.549-2.551c1.408,0,2.549,1.143,2.549,2.551C52.549,102.216,51.408,103.357,50,103.357z"/><path fill="none" d="M56.833,73.798h-4.671"/><g><circle fill="#000000" cx="50" cy="100.807" r="2.549"/><path fill="#000000" d="M90.268,128.962H9.733c-1.133,0-2.052,0.919-2.052,2.053c0,1.132,0.919,2.052,2.052,2.052h80.535    c1.133,0,2.051-0.92,2.051-2.052C92.318,129.881,91.4,128.962,90.268,128.962z"/></g><path fill="#000000" d="M56.833,73.798c0.187-0.258,0.375-0.519,0.563-0.777h-5.289l0.055,0.777H56.833z"/><path fill="#000000" d="M47.123,73.798l0.055-0.777h-5.075c0.173,0.262,0.344,0.52,0.517,0.777H47.123z"/><path fill="#000000" d="M14.389,127.749h71.222c2.65,0,4.797-2.147,4.797-4.796L100,77.816c0-2.647-2.146-4.796-4.796-4.796h-9.112   c0.129,0.257,0.254,0.515,0.373,0.777h8.307c2.623,0,4.75,2.103,4.75,4.694l-9.594,43.785c0,2.594-2.125,4.695-4.75,4.695H14.822   c-2.624,0-4.75-2.104-4.75-4.695L0.479,78.492c0-2.594,2.126-4.694,4.75-4.694h8.517c0.118-0.264,0.245-0.521,0.372-0.777H4.796   C2.147,73.021,0,75.168,0,77.816l9.592,45.137C9.592,125.602,11.739,127.749,14.389,127.749z"/><path fill="#000000" d="M42.619,73.798c-0.172-0.26-0.344-0.517-0.517-0.777H14.119c-0.127,0.257-0.254,0.515-0.372,0.777H42.619z"/><polygon fill="#000000" points="52.162,73.798 52.107,73.021 47.177,73.021 47.123,73.798  "/><path fill="#000000" d="M86.465,73.798c-0.119-0.264-0.244-0.521-0.373-0.777H57.396c-0.188,0.26-0.377,0.521-0.563,0.777H86.465z"/><path fill="#000000" d="M88.609,73.021c0-11.4-7.491-17.383-17.82-20.636C75.165,52.875,79,53.626,79,53.626   c-8.726-4.793-8.498-22.009-8.498-22.009c1.522-33.344-20.48-31.601-20.48-31.601l-0.016,0.054l-0.018-0.054   c0,0-22.006-1.743-20.48,31.601c0,0,0.225,17.214-8.5,22.009c0,0,2.347-0.159,5.488-0.218C17.601,57.382,11.4,62.645,11.4,73.021    M44.009,26.248c0,0,7.369-2.461,16.37-8.942c0.044-0.032,0.092-0.065,0.134-0.098c0,0,0.162,0.232,0.392,0.628   c0.779,1.339,2.451,5.328-0.711,7.154l5.764,0.732h0.104l1.057,0.195c-0.013,0.836-0.075,1.657-0.191,2.461   c-0.333,4.413-1.454,8.48-3.156,11.891c-3.096,6.204-8.109,10.236-13.768,10.236c-8.625,0-15.754-9.372-16.873-21.525   C33.13,28.982,39.944,27.853,44.009,26.248z M55.898,59.064l-5.892,9.581l-5.894-9.581c-4.287-0.971-7.596-2.97-8.93-5.435   c3.456,0.3,6.387,0.933,7.143,2.178l-3.249-7.242c3.113,3.108,6.874,4.925,10.926,4.925c3.961,0,7.645-1.735,10.711-4.711   l-2.262,4.711c0.758-1.248,3.608-1.584,6.954-1.502C64.876,55.195,61.102,57.887,55.898,59.064z"/></g>
    </symbol>

    <symbol id="magic" viewBox="0 0 665 667">
        <g transform="translate(-111.35753,-230.75259)"><path style="" d="m 532.98171,230.75259 -36.4856,159.398 20.2427,3.273 16.2429,-162.671 z m -155.0336,71.881 -18.3034,9.333 39.0314,53.941 -20.728,-63.274 z m 267.6417,43.879 -39.2734,53.698 53.6978,-39.152 -14.4244,-14.546 z m -423.1601,40.123 140.1246,84.001 9.4546,-18.303 -149.5792,-65.698 z m 208.6104,48.729 11.8793,74.667 -67.3954,34.425 74.6678,11.879 11.8793,74.669 34.304,-67.396 74.6679,11.879 -53.4558,-53.577 34.304,-67.396 -67.3954,34.425 -53.4557,-53.575 z m 346.1889,42.787 -162.7911,14.546 3.0304,20.121 159.7607,-34.667 z m -475.4036,74.669 -66.5468,0.121 3.1521,20.242 63.3947,-20.363 z m 113.0936,14.91 -292.976,272.852 c -13.6535,12.599 -14.1861,33.937 -1.0911,47.033 13.1571,13.156 34.7349,12.804 47.3954,-0.85 l 272.6111,-293.096 -3.5152,-22.425 -22.4242,-3.514 z m 202.5493,32.363 53.8189,38.91 9.3341,-18.181 -63.153,-20.729 z m -64.1229,36.364 -18.3032,9.213 82.4261,141.094 -64.1229,-150.307 z m -103.7592,66.184 -20.3644,63.274 20.2432,3.273 0.1216,-66.547 z" fill="#000000"/></g>
    </symbol>


    <symbol id="strawberry" viewBox="0 0 100 100">
        <g><path d="M36.598,48c-0.305,0-0.602-0.006-0.888-0.014c-3.009-0.088-5.87-1.532-8.638-2.929c-1.058-0.534-2.056-1.038-3.026-1.446   c-1.202-0.507-2.582-0.662-4.042-0.827c-0.729-0.082-1.482-0.167-2.212-0.3c-2.75-0.501-4.798-1.147-6.846-2.161   C4.022,36.897,2.479,28.02,4.021,20.742c0.115-0.541,0.644-0.884,1.186-0.771c0.54,0.115,0.885,0.646,0.771,1.186   C4.596,27.679,5.87,35.58,11.833,38.53c1.872,0.927,3.762,1.521,6.318,1.987c0.663,0.12,1.35,0.197,2.077,0.279   c1.538,0.174,3.128,0.353,4.595,0.971c1.034,0.436,2.063,0.955,3.15,1.504c2.572,1.299,5.232,2.641,7.797,2.715   c1.435,0.043,3.481,0.019,4.69-0.68c1.049-0.605,2.226-1.332,2.921-2.302c1.578-2.206,1.99-5.058,1.262-8.717   c-0.794-3.984-1.59-7.079-2.581-10.033c-0.313-0.932-0.502-1.863-0.685-2.764c-0.077-0.379-0.155-0.761-0.243-1.146   c-0.221-0.974-0.216-1.933-0.211-2.859c0.004-0.817,0.008-1.588-0.143-2.312c-0.473-2.269-1.439-5.423-3.361-7.557   c-0.646-0.72-1.812-1.382-3.281-1.864c-1.263-0.414-4.86-1.071-7.327-0.332c-0.532,0.158-1.087-0.143-1.245-0.671   s0.143-1.086,0.671-1.245c2.946-0.881,7.016-0.147,8.524,0.347c1.271,0.417,3.023,1.177,4.146,2.427   c2.22,2.465,3.31,5.977,3.832,8.488c0.193,0.929,0.188,1.844,0.185,2.728c-0.005,0.852-0.009,1.656,0.162,2.407   c0.091,0.399,0.171,0.796,0.252,1.19c0.179,0.88,0.348,1.711,0.621,2.526c1.02,3.037,1.835,6.207,2.646,10.278   c0.844,4.23,0.321,7.591-1.597,10.271c-0.928,1.294-2.316,2.159-3.546,2.869C40.085,47.834,38.234,48,36.598,48z"/><path d="M13.668,31.08c-0.349,0-0.681-0.183-0.863-0.495c-0.326-0.558-0.695-1.121-1.07-1.694c-0.74-1.132-1.505-2.303-2.054-3.562   c-0.699-1.601-0.926-3.377-0.696-5.069c-0.352,0.187-0.707,0.338-1.039,0.48c-0.178,0.076-0.355,0.151-0.529,0.231   c-1.618,0.743-3.524,1.618-5.245,1.905c-0.311,0.051-0.63-0.046-0.858-0.266s-0.338-0.534-0.299-0.847   c0.063-0.492,0.316-0.939,0.54-1.333c0.085-0.15,0.17-0.295,0.228-0.43c0.079-0.183,0.154-0.371,0.23-0.559   c0.137-0.339,0.275-0.682,0.432-1.014c0.582-1.243,1.242-2.652,2.388-3.952c0.624-0.708,1.392-1.212,2.135-1.7   c0.247-0.162,0.491-0.322,0.723-0.487c1.061-0.756,1.994-1.226,3.365-1.229c0,0,0.001,0,0.002,0c0.551,0,0.999,0.446,1,0.998   c0.001,0.552-0.445,1.001-0.998,1.002c-0.854,0.002-1.414,0.291-2.21,0.858c-0.253,0.18-0.518,0.354-0.785,0.529   c-0.661,0.434-1.286,0.844-1.732,1.351c-0.888,1.007-1.421,2.077-2.078,3.479c-0.141,0.299-0.265,0.607-0.387,0.912   c-0.021,0.053-0.042,0.105-0.063,0.158c0.928-0.344,1.869-0.775,2.692-1.153c0.275-0.126,0.469-0.209,0.664-0.292   c0.553-0.236,1.075-0.459,1.472-0.785c0.178-0.146,0.35-0.307,0.522-0.469c0.379-0.354,0.809-0.754,1.326-1.047   c0.394-0.225,0.888-0.154,1.206,0.169c0.317,0.323,0.378,0.819,0.148,1.208c-1.127,1.912-1.25,4.422-0.321,6.552   c0.395,0.904,0.948,1.806,1.518,2.687c0.13-0.416,0.296-0.818,0.503-1.222c0.329-0.644,0.732-1.223,1.122-1.782   c0.415-0.596,0.806-1.158,1.089-1.761c0.541-1.155,0.564-2.267,0.592-3.555c0.011-0.484,0.021-0.979,0.058-1.494   c0.027-0.385,0.274-0.719,0.633-0.86c0.358-0.141,0.766-0.063,1.048,0.202c0.151,0.142,0.265,0.272,0.371,0.395   c0.129,0.15,0.17,0.196,0.263,0.247c0.532,0.293,1.169,0.554,1.701,0.694c1.25,0.333,2.47-0.098,3.603-0.612   c0.711-0.323,1.399-0.765,2.127-1.232c0.969-0.622,1.971-1.265,3.1-1.661c0.551-0.192,1.132-0.229,1.645-0.222   c-0.198-0.295-0.497-0.672-0.94-1.126c-0.602-0.62-1.757-1.307-2.943-1.75c-1.013-0.378-2.243-0.57-3.657-0.57   c-0.25,0-0.541-0.013-0.851-0.028c-0.726-0.035-1.824-0.087-2.281,0.143c-0.406,0.203-0.897,0.108-1.198-0.23   c-0.301-0.34-0.335-0.839-0.084-1.217c0.361-0.542,0.959-0.729,1.396-0.865c0.115-0.036,0.229-0.067,0.322-0.111   c0.469-0.221,0.908-0.583,1.373-0.965l0.321-0.262c0.878-0.706,1.68-1.468,2.452-2.332c0.688-0.771,1.229-1.558,1.601-2.315   c-0.072,0.014-0.144,0.028-0.213,0.042c-0.171,0.033-0.332,0.064-0.473,0.098c-0.634,0.152-1.268,0.23-1.88,0.306   c-0.726,0.09-1.412,0.175-2.044,0.371c-1.104,0.342-2.224,0.923-3.422,1.775c-1.255,0.892-2.135,2.258-2.77,4.302   c-0.164,0.527-0.724,0.821-1.252,0.658c-0.527-0.164-0.822-0.725-0.658-1.252c0.772-2.483,1.891-4.18,3.521-5.338   c1.374-0.977,2.678-1.649,3.988-2.055c0.802-0.25,1.61-0.349,2.391-0.446c0.583-0.072,1.134-0.14,1.657-0.265   c0.164-0.04,0.355-0.078,0.558-0.117c0.365-0.072,1.222-0.239,1.384-0.434c0.281-0.339,0.756-0.458,1.162-0.287   c0.405,0.172,0.655,0.584,0.608,1.022C28.729,3.24,27.38,5.147,26.29,6.371c-0.84,0.94-1.712,1.771-2.667,2.54   c1.541,0.024,2.912,0.258,4.08,0.695c0.558,0.208,2.469,0.984,3.678,2.229c1.481,1.521,2.072,2.761,1.805,3.789   c-0.11,0.423-0.482,0.726-0.919,0.747c-0.301,0.013-0.614,0.005-0.932-0.004c-0.541-0.017-1.053-0.033-1.432,0.098   c-0.907,0.318-1.769,0.871-2.68,1.456c-0.757,0.486-1.539,0.988-2.383,1.371c-1.398,0.635-3.081,1.219-4.941,0.724   c-0.5-0.132-1.051-0.337-1.574-0.582c-0.035,1.234-0.134,2.511-0.769,3.868c-0.355,0.757-0.814,1.417-1.258,2.054   c-0.368,0.528-0.716,1.028-0.983,1.551c-0.485,0.949-0.667,1.835-0.647,3.159c0.007,0.454-0.293,0.855-0.731,0.978   C13.848,31.068,13.757,31.08,13.668,31.08z"/><path d="M15.946,15.288c-0.233,0-0.467-0.081-0.657-0.247C8.763,9.349,7.823,2.643,7.786,2.36c-0.071-0.548,0.315-1.05,0.862-1.121   C9.191,1.164,9.697,1.553,9.769,2.1c0.013,0.095,0.921,6.276,6.835,11.435c0.417,0.363,0.459,0.995,0.096,1.411   C16.502,15.172,16.225,15.288,15.946,15.288z"/><path d="M35.115,23.944c-0.467,0-0.884-0.328-0.979-0.803l-0.351-1.744c0,0,0,0,0,0l0,0l0,0c-0.108-0.542,0.242-1.071,0.783-1.18   c0.979-0.195,1.053,0.167,1.528,2.53c0.108,0.542-0.242,1.069-0.783,1.178C35.247,23.938,35.181,23.944,35.115,23.944z"/><path d="M25.746,27.197c-0.306,0-0.607-0.14-0.804-0.403c0,0-0.904-1.218-1.004-1.352c-0.006-0.008-0.012-0.016-0.018-0.024   c-0.324-0.444-0.229-1.07,0.215-1.396c0.54-0.396,0.829-0.376,1.375,0.24l0.027-0.02c0.039,0.053,0.071,0.109,0.098,0.166   c0.242,0.291,0.535,0.684,0.913,1.193c0.329,0.443,0.237,1.07-0.206,1.399C26.162,27.133,25.953,27.197,25.746,27.197z"/><path d="M19.246,34.614c-0.222,0-0.446-0.073-0.631-0.225l-1.313-1.07c-0.004-0.003-0.007-0.006-0.011-0.009   c-0.426-0.35-0.491-0.98-0.141-1.407c0.425-0.52,0.709-0.57,1.389-0.111l0.022-0.026c0.053,0.043,0.1,0.091,0.142,0.142   c0.306,0.223,0.685,0.532,1.176,0.932c0.428,0.35,0.492,0.979,0.143,1.407C19.823,34.488,19.536,34.614,19.246,34.614z"/><path d="M25.233,38.583c-0.222,0-0.445-0.073-0.631-0.225c-0.49-0.399-0.87-0.709-1.148-0.963c-0.058-0.03-0.114-0.066-0.167-0.109   l0.021-0.026c-0.589-0.573-0.596-0.862-0.173-1.383c0.347-0.43,0.978-0.492,1.407-0.147c0.004,0.003,0.009,0.007,0.013,0.011   l1.311,1.067c0.428,0.349,0.492,0.979,0.144,1.407C25.813,38.457,25.524,38.583,25.233,38.583z"/><path d="M32.903,42.07c-0.222,0-0.445-0.073-0.631-0.225l-1.319-1.075l0,0V40.77h-0.001c-0.427-0.35-0.493-0.98-0.145-1.408   c0.425-0.52,0.706-0.573,1.386-0.115l0.022-0.027c0.054,0.044,0.103,0.093,0.145,0.146c0.306,0.222,0.686,0.531,1.176,0.931   c0.428,0.349,0.492,0.979,0.144,1.407C33.481,41.944,33.194,42.07,32.903,42.07z"/><path d="M30.964,33.537c-0.306,0-0.607-0.14-0.804-0.403c0,0-0.886-1.192-1-1.344c-0.01-0.012-0.019-0.024-0.027-0.037   c-0.32-0.445-0.222-1.068,0.222-1.392c0.542-0.395,0.83-0.373,1.377,0.246l0.026-0.019c0.037,0.05,0.067,0.104,0.093,0.157   c0.242,0.29,0.535,0.685,0.915,1.194c0.329,0.443,0.237,1.069-0.206,1.399C31.38,33.473,31.171,33.537,30.964,33.537z"/><path d="M37.304,31.08c-0.467,0-0.885-0.328-0.979-0.804c0,0-0.309-1.546-0.345-1.723c-0.003-0.011-0.005-0.021-0.007-0.033   c-0.103-0.54,0.251-1.064,0.791-1.169c0.659-0.127,0.905-0.005,1.141,0.806l0.033-0.006c0.013,0.064,0.019,0.129,0.018,0.192   c0.098,0.379,0.198,0.882,0.33,1.54c0.108,0.542-0.243,1.068-0.784,1.177C37.435,31.074,37.368,31.08,37.304,31.08z"/><path d="M38.664,38.989c-0.133-0.659-0.233-1.162-0.289-1.55c-0.024-0.058-0.044-0.118-0.058-0.182l0.033-0.008   c-0.096-0.84,0.085-1.048,0.74-1.184c0.547-0.114,1.067,0.235,1.182,0.771c0.003,0.013,0.005,0.024,0.007,0.036   c0.036,0.181,0.346,1.721,0.346,1.721L38.664,38.989z"/></g>
    </symbol>
</svg>